HIERARCHY
ROOT Hips
{
	OFFSET 0.000000 0.000000 0.000000 
	CHANNELS 6 Xposition Yposition Zposition Zrotation Yrotation Xrotation
	JOINT LeftUpLeg
	{
		OFFSET 1.363060 -1.794630 0.839290 
		CHANNELS 3 Zrotation Yrotation Xrotation
		JOINT LeftLeg
		{
			OFFSET 2.448110 -6.726130 0.000000 
			CHANNELS 3 Zrotation Yrotation Xrotation
			JOINT LeftFoot
			{
				OFFSET 2.562200 -7.039590 0.000000 
				CHANNELS 3 Zrotation Yrotation Xrotation
				JOINT LeftToeBase
				{
					OFFSET 0.157640 -0.433110 2.322550 
					CHANNELS 3 Zrotation Yrotation Xrotation
					End Site
					{
						OFFSET 0.000000 0.000000 0.000000 
					}
				}
			}
		}
	}
	JOINT RightUpLeg
	{
		OFFSET -1.305520 -1.794630 0.839290 
		CHANNELS 3 Zrotation Yrotation Xrotation
		JOINT RightLeg
		{
			OFFSET -2.542530 -6.985550 0.000000 
			CHANNELS 3 Zrotation Yrotation Xrotation
			JOINT RightFoot
			{
				OFFSET -2.568260 -7.056230 0.000000 
				CHANNELS 3 Zrotation Yrotation Xrotation
				JOINT RightToeBase
				{
					OFFSET -0.164730 -0.452590 2.363150 
					CHANNELS 3 Zrotation Yrotation Xrotation
					End Site
					{
						OFFSET 0.000000 0.000000 0.000000 
					}
				}
			}
		}
	}
	JOINT Spine
	{
		OFFSET 0.028270 2.035590 -0.193380 
		CHANNELS 3 Zrotation Yrotation Xrotation
		JOINT Spine1
		{
			OFFSET 0.056720 2.048850 -0.042750 
			CHANNELS 3 Zrotation Yrotation Xrotation
			JOINT Neck1
			{
				OFFSET -0.054170 1.746240 0.172020 
				CHANNELS 3 Zrotation Yrotation Xrotation
				JOINT Head
				{
					OFFSET 0.104070 1.761360 -0.123970 
					CHANNELS 3 Zrotation Yrotation Xrotation
					End Site
					{
						OFFSET 0.000000 0.000000 0.000000 
					}
				}
			}
			JOINT LeftArm
			{
				OFFSET 3.362410 1.200890 -0.311210 
				CHANNELS 3 Zrotation Yrotation Xrotation
				JOINT LeftForeArm
				{
					OFFSET 4.983000 -0.000000 -0.000000 
					CHANNELS 3 Zrotation Yrotation Xrotation
					JOINT LeftHand
					{
						OFFSET 3.483560 -0.000000 -0.000000 
						CHANNELS 3 Zrotation Yrotation Xrotation
						JOINT LeftHandIndex1
						{
							OFFSET 0.715260 -0.000000 -0.000000 
							CHANNELS 3 Zrotation Yrotation Xrotation
							End Site
							{
								OFFSET 0.000000 0.000000 0.000000 
							}
						}
					}
				}
			}
			JOINT RightArm
			{
				OFFSET -3.136600 1.374050 -0.404650 
				CHANNELS 3 Zrotation Yrotation Xrotation
				JOINT RightForeArm
				{
					OFFSET -5.241900 -0.000000 -0.000000 
					CHANNELS 3 Zrotation Yrotation Xrotation
					JOINT RightHand
					{
						OFFSET -3.444170 -0.000000 -0.000000 
						CHANNELS 3 Zrotation Yrotation Xrotation
						JOINT RightHandIndex1
						{
							OFFSET -0.622530 -0.000000 -0.000000 
							CHANNELS 3 Zrotation Yrotation Xrotation
							End Site
							{
								OFFSET 0.000000 0.000000 0.000000 
							}
						}
					}
				}
			}
		}
	}
}
MOTION
Frames: 12
Frame Time: 0.041667
3.078963 18.327837 -25.524089 -4.436688 45.254240 13.613000 -8.708180 2.913121 -15.514828 -1.536414 8.118104 20.233646 -1.041936 6.590641 0.671471 1.830300 -8.503400 -24.253800 19.142039 -1.953420 -36.167716 -0.574286 -13.649320 31.951463 0.378223 -5.547079 6.563136 -1.107700 6.686800 -18.790700 0.560587 0.839168 -3.791121 1.787131 0.350544 -13.750567 14.660811 -38.472478 -2.435961 24.450500 -16.456100 1.297200 -59.249940 10.905702 21.125047 14.621675 -22.910936 -4.886695 -1.645064 -0.533014 -39.822514 -7.125000 0.000000 0.000000 65.923937 -11.798163 -17.514763 -9.553532 18.785576 -3.196912 1.089972 0.820072 20.281847 7.125000 0.000000 0.000000 
3.090488 18.323404 -25.467684 -4.543562 44.571312 13.678701 -8.652208 3.060678 -15.337851 -1.540617 8.049400 20.066201 -1.303032 7.178590 0.536099 1.859100 -8.566200 -24.447600 19.627895 -2.499861 -36.325408 -0.531835 -13.586899 31.777963 0.390439 -5.639084 6.950998 -1.062500 6.553500 -18.399100 0.589609 0.736128 -3.809628 1.868200 0.304191 -13.711565 14.586001 -38.270874 -2.314704 24.420000 -16.391700 1.331100 -59.763191 10.898307 20.442419 14.963771 -23.212911 -5.039143 -1.612717 -0.547333 -40.377499 -7.125000 0.000000 0.000000 66.214043 -12.295844 -17.481696 -9.484230 18.738469 -3.164203 1.079265 0.833191 20.344366 7.125000 0.000000 0.000000 
3.102123 18.319526 -25.407845 -4.670326 43.902551 13.728111 -8.575057 3.187928 -15.127817 -1.547080 7.969201 19.871027 -1.577888 7.796021 0.411209 1.899700 -8.653900 -24.718400 20.133759 -3.022369 -36.497077 -0.484200 -13.535104 31.643625 0.280245 -5.397442 7.390054 -0.990800 6.335200 -17.760300 0.613137 0.649456 -3.829803 1.917803 0.258656 -13.687226 14.509999 -38.064429 -2.189110 24.393900 -16.330400 1.353000 -60.244145 10.885187 19.874982 15.285564 -23.494285 -5.181129 -1.579549 -0.560455 -40.876548 -7.125000 0.000000 0.000000 66.563983 -12.819935 -17.517970 -9.405744 18.675377 -3.126639 1.065560 0.844186 20.481312 7.125000 0.000000 0.000000 
3.113869 18.316423 -25.345457 -4.812937 43.242218 13.766901 -8.479953 3.296234 -14.891525 -1.555380 7.879196 19.651870 -1.866466 8.442300 0.296480 1.951000 -8.763200 -25.057400 20.644838 -3.495447 -36.677975 -0.428233 -13.492444 31.543376 0.041500 -4.796812 7.870177 -0.893300 6.024100 -16.854300 0.635527 0.567958 -3.852389 1.957085 0.212894 -13.673330 14.426024 -37.840475 -2.046041 24.362400 -16.268900 1.382900 -60.720587 10.862896 19.374285 15.583406 -23.747861 -5.309990 -1.544087 -0.570491 -41.309812 -7.125000 0.000000 0.000000 66.939286 -13.349242 -17.606389 -9.303116 18.576260 -3.078085 1.049320 0.845263 20.753478 7.125000 0.000000 0.000000 
3.125616 18.313431 -25.280077 -4.969074 42.592651 13.798310 -8.366703 3.388618 -14.632924 -1.563641 7.783152 19.418807 -2.165323 9.109252 0.182959 2.013800 -8.894800 -25.466700 21.147522 -3.896711 -36.852126 -0.362233 -13.456919 31.469415 -0.314794 -3.854832 8.379264 -0.775000 5.620900 -15.688200 0.660520 0.482029 -3.875177 2.001816 0.165219 -13.654994 14.332076 -37.599552 -1.880954 24.316900 -16.207300 1.429800 -61.205915 10.827665 18.927461 15.859035 -23.976268 -5.427008 -1.508918 -0.577373 -41.681066 -7.125000 0.000000 0.000000 67.317441 -13.857296 -17.747091 -9.186036 18.451364 -3.023224 1.029379 0.843142 21.149018 7.125000 0.000000 0.000000 
3.137362 18.310328 -25.211926 -5.143482 41.944657 13.821840 -8.234702 3.467793 -14.360236 -1.570303 7.685067 19.183310 -2.468497 9.783476 0.064150 2.082900 -9.036600 -25.909800 21.627142 -4.190648 -37.000070 -0.287691 -13.428322 31.410461 -0.741801 -2.687523 8.897577 -0.647600 5.148000 -14.331300 0.690454 0.386602 -3.896167 2.063053 0.115266 -13.616020 14.227726 -37.336382 -1.690355 24.254100 -16.142400 1.503500 -61.709926 10.771475 18.513862 16.114461 -24.180718 -5.533244 -1.475299 -0.581109 -41.993767 -7.125000 0.000000 0.000000 67.684783 -14.326193 -17.884358 -9.054292 18.302651 -2.962057 1.008615 0.834509 21.584517 7.125000 0.000000 0.000000 
3.149108 18.306450 -25.141116 -5.336043 41.289977 13.834498 -8.086174 3.542268 -14.080381 -1.572262 7.591573 18.963152 -2.779196 10.471280 -0.071951 2.165500 -9.202600 -26.431000 22.071502 -4.345122 -37.095224 -0.210202 -13.408756 31.360259 -1.170253 -1.480177 9.382908 -0.530000 4.665100 -12.955800 0.720544 0.293361 -3.916859 2.116773 0.064456 -13.568821 14.112347 -37.054059 -1.476550 24.178100 -16.077200 1.591900 -62.203237 10.716004 18.176847 16.353685 -24.369819 -5.631067 -1.443000 -0.583294 -42.264074 -7.125000 0.000000 0.000000 68.057326 -14.764246 -18.067246 -8.907847 18.127622 -2.894960 0.985706 0.822646 22.120812 7.125000 0.000000 0.000000 
3.160965 18.301241 -25.067757 -5.543651 40.620567 13.837715 -7.925442 3.613163 -13.797419 -1.567839 7.508643 18.774949 -3.090887 11.157780 -0.236162 2.258000 -9.384000 -27.004200 22.470363 -4.344000 -37.118784 -0.136004 -13.400609 31.316440 -1.543659 -0.393914 9.787026 -0.439900 4.255900 -11.797700 0.748507 0.207766 -3.937474 2.155190 0.014350 -13.517724 13.988896 -36.759555 -1.247480 24.089900 -16.012600 1.687800 -62.673139 10.666467 17.936573 16.579072 -24.547932 -5.722188 -1.414311 -0.584602 -42.498188 -7.125000 0.000000 0.000000 68.448347 -15.177196 -18.304853 -8.751760 17.931771 -2.823924 0.961013 0.810180 22.733928 7.125000 0.000000 0.000000 
3.172490 18.294038 -24.992404 -5.768204 39.933647 13.829474 -7.752556 3.682696 -13.520809 -1.554666 7.442825 18.635280 -3.407810 11.852318 -0.432369 2.371700 -9.600900 -27.693700 22.830364 -4.193032 -37.073116 -0.070427 -13.406336 31.284098 -1.836820 0.487971 10.079465 -0.380700 3.962400 -10.971000 0.777747 0.127293 -3.956594 2.194789 -0.032772 -13.454738 13.858708 -36.448574 -1.001907 23.999300 -15.946400 1.791500 -63.135163 10.624221 17.786299 16.794979 -24.720077 -5.808509 -1.387507 -0.584912 -42.695015 -7.125000 0.000000 0.000000 68.831453 -15.554387 -18.595959 -8.582938 17.711325 -2.748526 0.934188 0.798018 23.435595 7.125000 0.000000 0.000000 
3.183904 18.284952 -24.915610 -6.001685 39.223353 13.811465 -7.575455 3.752840 -13.253094 -1.531191 7.399253 18.557488 -3.732546 12.561426 -0.665415 2.511800 -9.859300 -28.522200 23.153340 -3.905067 -36.960584 -0.015534 -13.426713 31.269219 -2.055221 1.171717 10.244507 -0.348000 3.790600 -10.488300 0.804301 0.065513 -3.975587 2.223863 -0.072207 -13.393342 13.725707 -36.129264 -0.746061 23.912200 -15.882200 1.897100 -63.572065 10.600267 17.762228 17.007754 -24.894679 -5.892978 -1.361846 -0.585372 -42.865497 -7.125000 0.000000 0.000000 69.222995 -15.913394 -18.979873 -8.400383 17.463294 -2.668423 0.904477 0.784903 24.268045 7.125000 0.000000 0.000000 
3.195096 18.273095 -24.837597 -6.244566 38.487114 13.780274 -7.397298 3.831454 -12.998275 -1.496000 7.381751 18.552913 -4.058379 13.270809 -0.936188 2.675400 -10.150100 -29.464200 23.455263 -3.512834 -36.795964 0.028846 -13.461239 31.278807 -2.229281 1.744504 10.286157 -0.332700 3.707100 -10.253900 0.832594 0.010212 -3.994074 2.260734 -0.106203 -13.330838 13.584872 -35.789730 -0.474784 23.825600 -15.814200 2.010100 -64.012732 10.593928 17.816103 17.219489 -25.071129 -5.976203 -1.335856 -0.584927 -42.998851 -7.125000 0.000000 0.000000 69.593583 -16.240916 -19.423644 -8.208041 17.193906 -2.585869 0.872331 0.773259 25.213341 7.125000 0.000000 0.000000 
3.205734 18.259465 -24.759473 -6.486582 37.727053 13.742834 -7.224265 3.922411 -12.764438 -1.449129 7.391837 18.624762 -4.378140 13.966496 -1.230566 2.860300 -10.465500 -30.497600 23.738846 -3.034672 -36.591159 0.064880 -13.507022 31.311444 -2.381125 2.270230 10.230796 -0.323700 3.656800 -10.113100 0.865308 -0.043519 -4.010705 2.323311 -0.133719 -13.256486 13.440730 -35.442547 -0.197066 23.731800 -15.741800 2.142200 -64.475011 10.583916 17.917335 17.432007 -25.247049 -6.057440 -1.304911 -0.582253 -43.077546 -7.125000 0.000000 0.000000 69.920591 -16.520219 -19.915926 -7.995721 16.888549 -2.496714 0.839780 0.755857 26.287198 7.125000 0.000000 0.000000 
